<?xml version="1.0" encoding="UTF-8" standalone="no"?>
<svg width="240px" height="240px" viewBox="0 0 240 240" version="1.1" xmlns="https://www.w3.org/2000/svg" xmlns:xlink="https://www.w3.org/1999/xlink" xmlns:sketch="https://www.bohemiancoding.com/sketch/ns">
    <!-- Generator: Sketch 3.3.3 (12081) - https://www.bohemiancoding.com/sketch -->
    <title>design</title>
    <desc>Created with Sketch.</desc>
    <defs></defs>
    <g id="Page-1" stroke="none" stroke-width="1" fill="none" fill-rule="evenodd" sketch:type="MSPage">
        <g id="design" sketch:type="MSLayerGroup">
            <g id="Group" sketch:type="MSShapeGroup">
                <circle id="Oval" fill="#FFFFFF" cx="119.999" cy="119.999" r="119.999"></circle>
                <g transform="translate(51.000000, 49.000000)" id="Shape">
                    <path d="M47.248,110.823 L50.083,113.658 L43.152,120.584 L42.039,121.695 L39.043,124.685 L37.937,125.793 L35.805,127.925 L32.984,125.104 L23.635,115.745 L37.933,101.488 L47.247,110.823 L47.248,110.823 Z" fill="#E6E5E4"></path>
                    <path d="M23.635,115.745 L13.126,105.236 L15.271,103.106 L16.381,101.992 L19.371,99.006 L20.492,97.882 L27.417,90.96 L37.933,101.487 L23.635,115.744 L23.635,115.745 Z" fill="#FFFFFF"></path>
                    <path d="M112.607,33.084 C113.499,32.859 114.361,32.409 115.077,31.711 C113.007,33.802 113.011,37.178 115.094,39.272 C116.927,41.105 119.767,41.331 121.851,39.941 L50.083,113.659 L47.248,110.824 L42.026,105.602 L37.931,101.497 L108.141,32.217 C109.45,33.168 111.086,33.451 112.607,33.086 L112.607,33.084 Z" fill="#CA3B0D"></path>
                    <path d="M99.873,24.03 C101.954,26.121 105.336,26.121 107.424,24.058 L107.484,24.108 L107.504,24.128 C105.427,26.223 105.428,29.596 107.516,31.683 C107.718,31.875 107.926,32.052 108.14,32.215 L37.93,101.495 L34.993,98.558 L27.416,90.96 L99.391,17.04 C97.816,19.145 97.965,22.123 99.871,24.029 L99.873,24.03 Z" fill="#FC5722"></path>
                    <path d="M33.095,125.214 L35.806,127.925 L28.828,134.887 C21.494,142.221 10.473,143.079 4.209,136.815 C3.919,136.525 3.649,136.224 3.393,135.917 L23.632,115.742 L33.094,125.214 L33.095,125.214 Z" fill="#274463"></path>
                    <path d="M3.394,135.918 C1.236,133.341 0.133,130.116 0.044,126.726 C-0.089,121.724 1.995,116.367 6.162,112.201 L13.128,105.238 L23.634,115.744 L3.395,135.919 L3.394,135.918 Z" fill="#405E7C"></path>
                    <path d="M137.791,3.629 L137.421,4.842 L135.862,9.868 L133.226,7.217 L137.959,2.494 C137.972,2.83 137.922,3.21 137.791,3.628 L137.791,3.629 Z" fill="#CA3B0D"></path>
                    <path d="M137.959,2.495 L133.226,7.218 L129.131,3.118 L133.824,1.641 L135.322,1.171 C136.874,0.678 137.892,1.261 137.959,2.496 L137.959,2.495 Z" fill="#FC5722"></path>
                    <path d="M135.861,9.868 L135.396,11.407 L135.388,11.425 L127.384,34.414 L121.85,39.94 C119.766,41.33 116.926,41.105 115.093,39.271 C113.01,37.177 113.006,33.801 115.076,31.71 C113.177,33.583 110.232,33.743 108.145,32.21 L133.225,7.217 L135.861,9.868 L135.861,9.868 Z" fill="#E6E5E4"></path>
                    <path d="M108.146,32.211 C107.933,32.049 107.719,31.877 107.517,31.684 C105.43,29.597 105.429,26.223 107.505,24.129 L107.424,24.059 C105.336,26.122 101.953,26.122 99.873,24.031 C97.966,22.124 97.818,19.147 99.393,17.042 L104.711,11.721 L128.046,3.464 L128.25,3.401 L129.132,3.119 L133.227,7.219 L108.147,32.212 L108.146,32.211 Z" fill="#FFFFFF"></path>
                </g>
                <g transform="translate(43.000000, 43.000000)">
                    <path d="M132.254,123.211 L146.519,134.171 C145.261,138.73 147.624,145.315 152.874,150.632 L153.046,150.799 L152.134,151.701 L139.168,138.735 C139.694,138.025 139.64,137.034 138.999,136.393 C138.435,135.829 137.592,135.729 136.918,136.075 L128.129,127.286 L132.254,123.212 L132.254,123.211 Z" id="Shape" fill="#FFFFFF"></path>
                    <path d="M134.155,146.36 L123.388,131.964 L127.544,127.859 L128.1,127.313 L128.128,127.285 L136.917,136.074 C136.753,136.156 136.599,136.258 136.466,136.392 C135.761,137.097 135.764,138.232 136.461,138.929 C137.102,139.57 138.093,139.624 138.8,139.101 L151.766,152.067 L150.7,153.113 L150.534,152.941 C145.283,147.624 138.731,145.166 134.155,146.361 L134.155,146.36 Z" id="Shape" fill="#BFBFBF"></path>
                    <path d="M129.082,128.678 L103.605,103.201 L109.561,97.245 L135.038,122.722 L129.082,128.678 Z" id="Rectangle-path" fill="#405E7C"></path>
                    <path d="M129.135,127.981 L122.404,134.712 L96.927,109.235 L103.658,102.504 L129.135,127.981 Z" id="Rectangle-path" fill="#274463"></path>
                    <path d="M105.331,104.891 L68.632,68.192 L75.844,60.98 L112.543,97.679 L105.331,104.891 Z" id="Rectangle-path" fill="#405E7C"></path>
                    <path d="M105.346,104.233 L97.358,112.221 L60.659,75.522 L68.647,67.534 L105.346,104.233 Z" id="Rectangle-path" fill="#274463"></path>
                    <path d="M106.859,105.806 L98.871,113.794 L98.276,113.199 L106.264,105.211 L106.859,105.806 Z" id="Rectangle-path" fill="#84888B"></path>
                    <path d="M106.906,106.404 L106.311,105.809 L113.523,98.597 L114.118,99.192 L106.906,106.404 Z" id="Rectangle-path" fill="#BFBFBF"></path>
                    <path d="M108.803,108.574 L107.015,106.786 L114.227,99.574 L116.015,101.362 L108.803,108.574 Z" id="Rectangle-path" fill="#FFFFFF"></path>
                    <path d="M109.028,107.705 L101.04,115.693 L99.252,113.905 L107.24,105.917 L109.028,107.705 Z" id="Rectangle-path" fill="#D9DAD9"></path>
                    <path d="M110.221,109.167 L109.175,108.121 L116.387,100.909 L117.433,101.955 L110.221,109.167 Z" id="Rectangle-path" fill="#BFBFBF"></path>
                    <path d="M109.622,109.122 L101.634,117.11 L100.588,116.064 L108.576,108.076 L109.622,109.122 Z" id="Rectangle-path" fill="#84888B"></path>
                    <path d="M111.391,110.58 L110.094,109.283 L117.306,102.071 L118.603,103.368 L111.391,110.58 Z" id="Rectangle-path" fill="#FFFFFF"></path>
                    <path d="M111.034,110.293 L103.046,118.281 L101.749,116.984 L109.737,108.996 L111.034,110.293 Z" id="Rectangle-path" fill="#D9DAD9"></path>
                    <path d="M105.954,105.523 L104.647,104.216 L111.859,97.004 L113.166,98.311 L105.954,105.523 Z" id="Rectangle-path" fill="#FFFFFF"></path>
                    <path d="M106.685,105.563 L98.697,113.551 L97.39,112.244 L105.378,104.256 L106.685,105.563 Z" id="Rectangle-path" fill="#D9DAD9"></path>
                    <path d="M59.021,58.722 L56.525,56.226 L65.553,47.198 L68.049,49.694 L59.021,58.722 Z" id="Rectangle-path" fill="#FFFFFF"></path>
                    <path d="M59.887,58.623 L50.087,68.423 L47.591,65.927 L57.391,56.127 L59.887,58.623 Z" id="Rectangle-path" fill="#D9DAD9"></path>
                    <path d="M61.188,59.714 L59.348,57.874 L68.376,48.846 L70.216,50.686 L61.188,59.714 Z" id="Rectangle-path" fill="#BFBFBF"></path>
                    <path d="M61.585,60.084 L51.785,69.884 L49.945,68.044 L59.745,58.244 L61.585,60.084 Z" id="Rectangle-path" fill="#84888B"></path>
                    <path d="M65.821,64.654 L61.225,60.058 L70.253,51.03 L74.849,55.626 L65.821,64.654 Z" id="Rectangle-path" fill="#FFFFFF"></path>
                    <path d="M65.819,65.424 L56.019,75.224 L51.423,70.628 L61.223,60.828 L65.819,65.424 Z" id="Rectangle-path" fill="#D9DAD9"></path>
                    <path d="M66.453,66.2 L56.653,76 L55.454,74.801 L65.254,65.001 L66.453,66.2 Z" id="Rectangle-path" fill="#84888B"></path>
                    <path d="M67.304,65.995 L66.105,64.796 L75.133,55.768 L76.332,56.967 L67.304,65.995 Z" id="Rectangle-path" fill="#BFBFBF"></path>
                    <path d="M70.456,69.775 L66.767,66.086 L75.795,57.058 L79.484,60.747 L70.456,69.775 Z" id="Rectangle-path" fill="#FFFFFF"></path>
                    <path d="M70.94,70.058 L61.14,79.858 L57.451,76.169 L67.251,66.369 L70.94,70.058 Z" id="Rectangle-path" fill="#D9DAD9"></path>
                    <path d="M23.239,4.335 L26.639,7.735 L17.609,16.765 L5.453,4.609 C10.66,-0.219 18.514,-0.39 23.239,4.335 L23.239,4.335 Z" id="Shape" fill="#405E7C"></path>
                    <path d="M4.407,23.167 C-0.439,18.321 -0.152,10.178 5.05,4.976 L5.452,4.609 L17.608,16.765 L7.807,26.566 L4.407,23.166 L4.407,23.167 Z" id="Shape" fill="#274463"></path>
                    <path d="M57.067,56.265 L47.267,66.065 L11.115,29.913 L20.915,20.113 L57.067,56.265 Z" id="Rectangle-path" fill="#274463"></path>
                    <path d="M56.662,55.902 L20.51,19.75 L29.538,10.722 L65.69,46.874 L56.662,55.902 Z" id="Rectangle-path" fill="#405E7C"></path>
                    <path d="M20.765,20.518 L17.649,17.402 L26.677,8.374 L29.793,11.49 L20.765,20.518 Z" id="Rectangle-path" fill="#FFFFFF"></path>
                    <path d="M20.976,19.66 L11.176,29.46 L8.06,26.344 L17.86,16.544 L20.976,19.66 Z" id="Shape" fill="#D9DAD9"></path>
                    <path d="M50.988,77.092 L9.427,35.531 C8.796,34.9 8.796,33.87 9.432,33.235 L11.938,30.729 L9.878,28.669 L7.372,31.175 C5.604,32.948 5.601,35.821 7.369,37.589 L50.007,80.227 L51.583,77.688 L50.988,77.093 L50.988,77.092 Z M50.212,70.191 C52.354,72.333 52.695,75.58 51.265,78.086 L42.317,69.138 C44.823,67.708 48.075,68.054 50.212,70.191 L50.212,70.191 Z" id="Shape" fill="#274463"></path>
                </g>
            </g>
        </g>
    </g>
</svg>