<?xml version="1.0" encoding="UTF-8" standalone="no"?>
<svg width="241px" height="240px" viewBox="0 0 241 240" version="1.1" xmlns="https://www.w3.org/2000/svg" xmlns:xlink="https://www.w3.org/1999/xlink" xmlns:sketch="https://www.bohemiancoding.com/sketch/ns">
    <!-- Generator: Sketch 3.3.3 (12081) - https://www.bohemiancoding.com/sketch -->
    <title>development</title>
    <desc>Created with Sketch.</desc>
    <defs></defs>
    <g id="Page-1" stroke="none" stroke-width="1" fill="none" fill-rule="evenodd" sketch:type="MSPage">
        <g id="development" sketch:type="MSLayerGroup">
            <g id="Group" sketch:type="MSShapeGroup">
                <path d="M240.331,120 C240.331,186.273 186.611,240 120.335,240 C54.062,240 0.335,186.273 0.335,120 C0.335,53.727 54.062,0 120.335,0 C186.611,0 240.331,53.727 240.331,120 L240.331,120 Z" id="Shape" fill="#FFFFFF"></path>
                <g transform="translate(52.000000, 60.000000)" id="Shape">
                    <path d="M20.846,62.682 L20.875,6.52 L71.308,6.563 L71.308,0.468 L17.617,0.425 C16.077,0.418 14.83,1.672 14.83,3.208 L14.783,65.625 C14.783,67.169 16.037,68.415 17.566,68.415 L71.308,68.473 L71.308,62.718 L20.846,62.682 L20.846,62.682 Z" fill="#405E7C"></path>
                    <path d="M119.502,0.518 L71.309,0.467 L71.309,6.562 L116.603,6.598 L116.57,62.753 L71.308,62.717 L71.308,68.472 L119.451,68.515 C120.998,68.515 122.242,67.254 122.238,65.71 L122.296,3.3 C122.296,1.763 121.042,0.517 119.502,0.517 L119.502,0.518 Z" fill="#274463"></path>
                    <path d="M135.592,108.712 L122.981,71.017 C122.495,69.553 120.839,68.372 119.303,68.372 L71.309,68.321 L71.309,75.518 L112.457,75.554 C112.715,75.554 112.982,75.757 113.077,75.996 L113.639,77.706 C113.722,77.952 113.584,78.148 113.324,78.148 L71.309,78.105 L71.309,80.178 L114.012,80.214 C114.262,80.214 114.545,80.402 114.632,80.649 L115.364,82.867 C115.447,83.113 115.306,83.295 115.049,83.295 L71.309,83.266 L71.309,85.332 L115.737,85.375 C115.998,85.368 116.277,85.571 116.346,85.817 L117.089,88.013 C117.176,88.267 117.034,88.462 116.774,88.462 L71.309,88.426 L71.309,90.492 L117.469,90.535 C117.719,90.535 118.002,90.731 118.082,90.97 L118.796,93.115 C118.89,93.361 118.731,93.55 118.474,93.564 L71.31,93.513 L71.31,95.977 L79.26,95.977 C79.525,95.992 79.793,96.187 79.876,96.426 L82.507,104.29 C82.583,104.522 82.438,104.725 82.181,104.725 L71.309,104.711 L71.309,111.306 L133.683,111.357 C135.234,111.357 136.082,110.168 135.593,108.712 L135.592,108.712 Z" fill="#BFBFBF"></path>
                    <path d="M60.346,104.704 C60.088,104.704 59.947,104.508 60.024,104.255 L62.684,96.413 C62.749,96.159 63.032,95.971 63.286,95.971 L71.309,95.978 L71.309,93.514 L20.133,93.47 C19.868,93.47 19.738,93.267 19.803,93.042 L20.524,90.889 C20.615,90.65 20.887,90.447 21.144,90.447 L71.309,90.49 L71.309,88.424 L21.843,88.381 C21.589,88.381 21.441,88.185 21.521,87.939 L22.267,85.721 C22.35,85.496 22.622,85.286 22.876,85.286 L71.309,85.329 L71.309,83.263 L23.568,83.234 C23.322,83.234 23.177,83.024 23.26,82.785 L23.999,80.574 C24.075,80.328 24.354,80.132 24.615,80.132 L71.308,80.175 L71.308,78.102 L25.311,78.066 C25.057,78.066 24.909,77.878 24.992,77.617 L25.575,75.928 C25.644,75.689 25.923,75.471 26.173,75.471 L71.308,75.514 L71.308,68.317 L17.425,68.266 C15.885,68.266 14.232,69.455 13.743,70.897 L1.074,108.592 C0.581,110.056 1.437,111.245 2.969,111.245 L71.307,111.303 L71.307,104.708 L60.345,104.701 L60.346,104.704 Z" fill="#D9DAD9"></path>
                    <path d="M20.875,6.519 L20.846,62.681 L71.308,62.717 L71.308,6.562 L20.875,6.519 L20.875,6.519 Z" fill="#FC5722"></path>
                    <path d="M116.603,6.599 L71.309,6.563 L71.309,62.718 L116.571,62.754 L116.604,6.599 L116.603,6.599 Z" fill="#E64511"></path>
                    <path d="M21.143,90.448 C20.886,90.448 20.614,90.651 20.523,90.89 L19.802,93.043 C19.737,93.268 19.867,93.471 20.132,93.471 L71.308,93.515 L71.308,90.493 L21.143,90.45 L21.143,90.448 Z M22.876,85.287 C22.623,85.287 22.351,85.497 22.267,85.722 L21.521,87.94 C21.441,88.186 21.59,88.382 21.843,88.382 L71.309,88.425 L71.309,85.33 L22.876,85.287 L22.876,85.287 Z" fill="#405E7C"></path>
                    <path d="M82.18,104.725 C82.437,104.725 82.582,104.522 82.506,104.29 L79.875,96.426 C79.792,96.187 79.523,95.991 79.259,95.977 L71.309,95.977 L71.309,104.71 L82.181,104.724 L82.18,104.725 Z" fill="#274463"></path>
                    <path d="M62.684,96.412 L60.024,104.254 C59.948,104.508 60.089,104.703 60.346,104.703 L71.308,104.71 L71.308,95.977 L63.285,95.97 C63.031,95.97 62.748,96.158 62.683,96.412 L62.684,96.412 Z M24.615,80.134 C24.354,80.134 24.075,80.33 23.999,80.576 L23.26,82.787 C23.177,83.026 23.322,83.236 23.568,83.236 L71.309,83.265 L71.309,80.177 L24.616,80.134 L24.615,80.134 Z M26.174,75.474 C25.924,75.474 25.645,75.691 25.576,75.931 L24.993,77.62 C24.91,77.881 25.058,78.069 25.312,78.069 L71.309,78.105 L71.309,75.518 L26.174,75.475 L26.174,75.474 Z" fill="#405E7C"></path>
                    <path d="M117.089,88.012 L116.346,85.816 C116.277,85.57 115.998,85.367 115.737,85.374 L71.309,85.331 L71.309,88.426 L116.774,88.462 C117.035,88.462 117.176,88.266 117.089,88.013 L117.089,88.012 Z M118.082,90.969 C118.002,90.73 117.719,90.534 117.469,90.534 L71.309,90.491 L71.309,93.513 L118.473,93.564 C118.731,93.55 118.89,93.361 118.795,93.115 L118.081,90.97 L118.082,90.969 Z M113.639,77.706 L113.077,75.996 C112.983,75.757 112.715,75.554 112.457,75.554 L71.309,75.518 L71.309,78.105 L113.324,78.148 C113.585,78.148 113.723,77.952 113.639,77.706 L113.639,77.706 Z M115.363,82.866 L114.631,80.648 C114.544,80.402 114.261,80.213 114.011,80.213 L71.308,80.177 L71.308,83.265 L115.048,83.294 C115.305,83.294 115.447,83.113 115.363,82.866 L115.363,82.866 Z" fill="#274463"></path>
                </g>
            </g>
        </g>
    </g>
</svg>