<?xml version="1.0" encoding="UTF-8" standalone="no"?>
<svg width="241px" height="240px" viewBox="0 0 241 240" version="1.1" xmlns="http://www.w3.org/2000/svg" xmlns:xlink="http://www.w3.org/1999/xlink" xmlns:sketch="http://www.bohemiancoding.com/sketch/ns">
    <!-- Generator: Sketch 3.3.3 (12081) - http://www.bohemiancoding.com/sketch -->
    <title>consulting</title>
    <desc>Created with Sketch.</desc>
    <defs></defs>
    <g id="Page-1" stroke="none" stroke-width="1" fill="none" fill-rule="evenodd" sketch:type="MSPage">
        <g id="consulting" sketch:type="MSLayerGroup" transform="translate(0.000000, -1.000000)">
            <g id="Group" sketch:type="MSShapeGroup">
                <path d="M240.667,121 C240.667,187.274 186.943,241.002 120.665,241.002 C54.391,241.002 0.667,187.274 0.667,121 C0.667,54.726 54.392,0.999 120.665,0.999 C186.943,0.999 240.667,54.727 240.667,121 L240.667,121 Z" id="Shape" fill="#FFFFFF"></path>
                <g transform="translate(52.000000, 35.000000)" id="Shape">
                    <path d="M85.745,12.061 L83.179,12.05 L83.179,89.073 L85.484,90.352 L85.745,12.061 L85.745,12.061 Z" fill="#274463"></path>
                    <path d="M81.526,12.047 L81.294,83.192 L22.337,50.399 L20.286,54.088 L83.179,89.073 L83.179,12.05 L81.526,12.046 L81.526,12.047 Z M17.442,130.436 L74.667,89.805 L37.888,96.531 L37.134,92.382 L83.259,83.953 L84.854,87.747 L19.885,133.872 L17.443,130.437 L17.442,130.436 Z" fill="#405E7C"></path>
                    <path d="M79.24,81.985 L122.006,96.43 L120.658,100.424 L90.029,90.078 L119.593,132.434 L116.136,134.848 L79.241,81.986 L79.24,81.985 Z" fill="#274463"></path>
                    <path d="M73.692,10.108 C73.692,15.424 77.91,19.729 83.18,19.94 L83.18,0.28 C77.911,0.483 73.692,4.785 73.692,10.108 L73.692,10.108 Z" fill="#405E7C"></path>
                    <path d="M83.563,0.237 L83.179,0.28 L83.179,19.94 L83.563,19.98 C89.021,19.98 93.434,15.559 93.434,10.109 C93.434,4.651 89.02,0.237 83.563,0.237 L83.563,0.237 Z" fill="#274463"></path>
                    <path d="M82.02,6.589 C82.02,7.665 82.469,8.629 83.18,9.325 L83.18,3.857 C82.47,4.557 82.02,5.517 82.02,6.589 L82.02,6.589 Z" fill="#FC5722"></path>
                    <path d="M85.854,2.759 C84.81,2.759 83.868,3.179 83.18,3.857 L83.18,9.325 C83.868,9.999 84.811,10.423 85.854,10.423 C87.97,10.423 89.688,8.709 89.688,6.589 C89.688,4.476 87.97,2.759 85.854,2.759 L85.854,2.759 Z" fill="#CA3B0D"></path>
                    <path d="M129.398,99.242 C129.398,103.047 126.314,106.131 122.509,106.131 C118.696,106.131 115.613,103.047 115.613,99.242 C115.613,95.433 118.697,92.349 122.509,92.349 C126.314,92.349 129.398,95.433 129.398,99.242 L129.398,99.242 Z" fill="#274463"></path>
                    <path d="M126.782,96.785 C126.782,98.263 125.586,99.459 124.1,99.459 C122.629,99.459 121.433,98.263 121.433,96.785 C121.433,95.31 122.629,94.111 124.1,94.111 C125.586,94.111 126.782,95.31 126.782,96.785 L126.782,96.785 Z" fill="#FC5722"></path>
                    <path d="M131.703,136.097 C131.703,143.186 125.949,148.947 118.853,148.947 C111.757,148.947 106.003,143.185 106.003,136.097 C106.003,128.998 111.758,123.247 118.853,123.247 C125.949,123.247 131.703,128.998 131.703,136.097 L131.703,136.097 Z" fill="#274463"></path>
                    <path d="M126.818,131.516 C126.818,134.27 124.586,136.502 121.828,136.502 C119.078,136.502 116.838,134.27 116.838,131.516 C116.838,128.762 119.078,126.522 121.828,126.522 C124.586,126.522 126.818,128.762 126.818,131.516 L126.818,131.516 Z" fill="#FC5722"></path>
                    <path d="M27.379,47.239 C27.379,54.781 21.269,60.894 13.724,60.894 C6.194,60.894 0.08,54.781 0.08,47.239 C0.08,39.702 6.194,33.592 13.724,33.592 C21.269,33.592 27.379,39.702 27.379,47.239 L27.379,47.239 Z" fill="#405E7C"></path>
                    <path d="M22.189,42.383 C22.189,45.311 19.819,47.681 16.891,47.681 C13.97,47.681 11.586,45.311 11.586,42.383 C11.586,39.455 13.971,37.081 16.891,37.081 C19.819,37.081 22.189,39.455 22.189,42.383 L22.189,42.383 Z" fill="#FC5722"></path>
                    <path d="M17.75,97.241 C16.866,91.457 20.841,86.043 26.636,85.163 C32.431,84.282 37.841,88.261 38.718,94.045 C39.606,99.843 35.627,105.254 29.832,106.134 C24.045,107.018 18.63,103.039 17.75,97.241 L17.75,97.241 Z" fill="#405E7C"></path>
                    <path d="M34.815,91.867 C34.815,94.143 32.967,95.987 30.691,95.987 C28.419,95.987 26.575,94.143 26.575,91.867 C26.575,89.595 28.419,87.746 30.691,87.746 C32.967,87.746 34.815,89.594 34.815,91.867 L34.815,91.867 Z" fill="#FC5722"></path>
                    <path d="M27.9,136.731 C27.9,144.178 21.855,150.23 14.397,150.23 C6.946,150.23 0.902,144.178 0.902,136.731 C0.902,129.277 6.947,123.232 14.397,123.232 C21.855,123.232 27.9,129.277 27.9,136.731 L27.9,136.731 Z" fill="#405E7C"></path>
                    <path d="M22.769,131.922 C22.769,134.818 20.424,137.155 17.529,137.155 C14.637,137.155 12.288,134.818 12.288,131.922 C12.288,129.03 14.637,126.675 17.529,126.675 C20.424,126.675 22.769,129.03 22.769,131.922 L22.769,131.922 Z" fill="#FC5722"></path>
                    <path d="M81.65,70.153 C72.887,70.153 65.781,77.26 65.781,86.026 C65.781,94.796 72.887,101.902 81.65,101.902 C82.175,101.902 82.668,101.793 83.179,101.75 L83.179,70.309 C82.668,70.259 82.175,70.153 81.65,70.153 L81.65,70.153 Z" fill="#405E7C"></path>
                    <path d="M97.53,86.025 C97.53,77.781 91.221,71.084 83.18,70.308 L83.18,101.749 C91.222,100.966 97.53,94.269 97.53,86.025 L97.53,86.025 Z" fill="#274463"></path>
                    <path d="M81.28,80.655 C81.28,82.326 82.02,83.811 83.179,84.84 L83.179,76.462 C82.019,77.495 81.28,78.981 81.28,80.655 L81.28,80.655 Z" fill="#FC5722"></path>
                    <path d="M86.915,75.012 C85.476,75.012 84.172,75.57 83.179,76.461 L83.179,84.839 C84.172,85.731 85.476,86.289 86.915,86.289 C90.035,86.289 92.557,83.767 92.557,80.654 C92.557,77.541 90.035,75.012 86.915,75.012 L86.915,75.012 Z" fill="#CA3B0D"></path>
                </g>
            </g>
        </g>
    </g>
</svg>